<svg width="100%" height="100%" viewBox="0 0 24 24" fill="none" xmlns="http://www.w3.org/2000/svg">
<g xmlns="http://www.w3.org/2000/svg" id="user" clip-path="url(#clip0_1548_4000)">
<path id="Vector" d="M12.0008 12.8023C13.7681 12.8023 15.2008 11.3697 15.2008 9.60234C15.2008 7.83503 13.7681 6.40234 12.0008 6.40234C10.2335 6.40234 8.80078 7.83503 8.80078 9.60234C8.80078 11.3697 10.2335 12.8023 12.0008 12.8023Z" stroke="currentColor" stroke-width="2" stroke-linecap="round" stroke-linejoin="round"/>
<path id="Vector_2" d="M19.2008 19.2C19.2008 17.4327 15.9772 16 12.0008 16C8.02433 16 4.80078 17.4327 4.80078 19.2" stroke="currentColor" stroke-width="2" stroke-linecap="round" stroke-linejoin="round"/>
<path id="Vector_3" d="M11.9996 22.4016C17.7434 22.4016 22.3996 17.7453 22.3996 12.0016C22.3996 6.2578 17.7434 1.60156 11.9996 1.60156C6.25585 1.60156 1.59961 6.2578 1.59961 12.0016C1.59961 17.7453 6.25585 22.4016 11.9996 22.4016Z" stroke="currentColor" stroke-width="2" stroke-linecap="round" stroke-linejoin="round"/>
</g>
</svg>