<svg width="16" height="17" viewBox="0 0 16 17" fill="none" xmlns="http://www.w3.org/2000/svg">
<path d="M14.6666 11.7807V13.7807C14.6673 13.9664 14.6293 14.1502 14.5549 14.3203C14.4805 14.4904 14.3714 14.6431 14.2346 14.7686C14.0978 14.8941 13.9363 14.9897 13.7604 15.0492C13.5845 15.1087 13.3982 15.1308 13.2132 15.114C11.1618 14.8911 9.19125 14.1901 7.45991 13.0674C5.84913 12.0438 4.48347 10.6782 3.45991 9.06738C2.33323 7.32819 1.63208 5.34805 1.41325 3.28738C1.39659 3.10303 1.4185 2.91722 1.47758 2.7418C1.53667 2.56637 1.63163 2.40518 1.75643 2.26846C1.88122 2.13175 2.03312 2.02252 2.20244 1.94773C2.37177 1.87294 2.55481 1.83422 2.73991 1.83405H4.73991C5.06345 1.83086 5.37711 1.94543 5.62242 2.1564C5.86774 2.36737 6.02797 2.66035 6.07325 2.98072C6.15766 3.62076 6.31421 4.2492 6.53992 4.85405C6.62961 5.09266 6.64902 5.35199 6.59585 5.6013C6.54268 5.85061 6.41916 6.07946 6.23991 6.26072L5.39325 7.10738C6.34229 8.77641 7.72422 10.1583 9.39325 11.1074L10.2399 10.2607C10.4212 10.0815 10.65 9.95795 10.8993 9.90478C11.1486 9.85161 11.408 9.87102 11.6466 9.96072C12.2514 10.1864 12.8799 10.343 13.5199 10.4274C13.8438 10.4731 14.1395 10.6362 14.3509 10.8857C14.5624 11.1352 14.6747 11.4538 14.6666 11.7807Z" stroke="#999999" stroke-width="1.6" stroke-linecap="round" stroke-linejoin="round"/>
</svg>
