<svg width="20" height="21" viewBox="0 0 20 21" fill="none" xmlns="http://www.w3.org/2000/svg">
<path d="M16.8036 10.1228C16.8062 11.1206 16.573 12.1048 16.1232 12.9954C15.5898 14.0626 14.7699 14.9603 13.7552 15.5878C12.7405 16.2153 11.5711 16.5479 10.378 16.5484C9.38027 16.551 8.39602 16.3179 7.50542 15.868L3.19653 17.3043L4.63283 12.9954C4.18299 12.1048 3.94988 11.1206 3.95248 10.1228C3.95294 8.92976 4.28556 7.76038 4.91307 6.74568C5.54059 5.73097 6.43822 4.91101 7.50542 4.37764C8.39602 3.9278 9.38027 3.69469 10.378 3.69729H10.756C12.3316 3.78421 13.8199 4.44927 14.9357 5.56512C16.0516 6.68097 16.7166 8.1692 16.8036 9.74485V10.1228Z" stroke="#707070" stroke-width="1.4" stroke-linecap="round" stroke-linejoin="round"/>
</svg>
