<svg width="34" height="36" viewBox="0 0 34 36" fill="none" xmlns="http://www.w3.org/2000/svg">
<g id="Group 2085665109">
<path id="Ellipse 1248" d="M20 10.5C20 16.0228 15.5228 20.5 10 20.5C4.47715 20.5 0 16.0228 0 10.5C0 4.97715 4.47715 0.5 10 0.5C15.5228 0.5 20 4.97715 20 10.5ZM6 10.5C6 12.7091 7.79086 14.5 10 14.5C12.2091 14.5 14 12.7091 14 10.5C14 8.29086 12.2091 6.5 10 6.5C7.79086 6.5 6 8.29086 6 10.5Z" fill="#71BB9D"/>
<rect id="Rectangle 240652292" x="3" y="22.5" width="29" height="6" rx="3" fill="#71BB9D"/>
<rect id="Rectangle 240652294" x="32" y="22.5" width="13" height="6" rx="3" transform="rotate(90 32 22.5)" fill="#66A1A3"/>
<path id="Intersect" fill-rule="evenodd" clip-rule="evenodd" d="M32 25.5C32 23.8431 30.6569 22.5 29 22.5C27.3431 22.5 26 23.8431 26 25.5V28.5H29C30.6569 28.5 32 27.1569 32 25.5Z" fill="#004F52"/>
<path id="Union" fill-rule="evenodd" clip-rule="evenodd" d="M16.9289 3.42893C18.8043 1.55357 21.3478 0.5 24 0.5H31C32.6569 0.5 34 1.84315 34 3.5C34 5.15685 32.6569 6.5 31 6.5L24 6.5C22.9391 6.5 21.9217 6.92143 21.1716 7.67157C20.4214 8.42172 20 9.43913 20 10.5C20 11.5609 20.4214 12.5783 21.1716 13.3284C21.9217 14.0786 22.9391 14.5 24 14.5H31C32.6569 14.5 34 15.8431 34 17.5C34 19.1569 32.6569 20.5 31 20.5H24C21.3478 20.5 18.8043 19.4464 16.9289 17.5711C15.0536 15.6957 14 13.1522 14 10.5C14 7.84783 15.0536 5.3043 16.9289 3.42893Z" fill="#66A1A3"/>
<path id="Intersect_2" fill-rule="evenodd" clip-rule="evenodd" d="M17 17.6414C18.8514 15.8265 20 13.2974 20 10.5C20 7.70262 18.8514 5.1735 17 3.35858C16.9762 3.38191 16.9525 3.40536 16.9289 3.42894C15.0536 5.30431 14 7.84785 14 10.5C14 13.1522 15.0536 15.6957 16.9289 17.5711C16.9525 17.5947 16.9762 17.6181 17 17.6414Z" fill="#004F52"/>
<circle id="Ellipse 1254" cx="31" cy="3.5" r="3" fill="#328285"/>
<circle id="Ellipse 1255" cx="31" cy="17.5" r="3" fill="#328285"/>
</g>
</svg>
