<svg width="122" height="37" viewBox="0 0 122 37" fill="none" xmlns="http://www.w3.org/2000/svg">
<path d="M20 12C20 17.5228 15.5228 22 10 22C4.47715 22 0 17.5228 0 12C0 6.47715 4.47715 2 10 2C15.5228 2 20 6.47715 20 12ZM6 12C6 14.2091 7.79086 16 10 16C12.2091 16 14 14.2091 14 12C14 9.79086 12.2091 8 10 8C7.79086 8 6 9.79086 6 12Z" fill="#71BB9D"/>
<rect x="3" y="24" width="29" height="6" rx="3" fill="#71BB9D"/>
<rect x="32" y="24" width="13" height="6" rx="3" transform="rotate(90 32 24)" fill="#66A1A3"/>
<path fill-rule="evenodd" clip-rule="evenodd" d="M32 27C32 25.3431 30.6569 24 29 24C27.3431 24 26 25.3431 26 27V30H29C30.6569 30 32 28.6569 32 27Z" fill="#004F52"/>
<path fill-rule="evenodd" clip-rule="evenodd" d="M16.9289 4.92893C18.8043 3.05357 21.3478 2 24 2H31C32.6569 2 34 3.34315 34 5C34 6.65685 32.6569 8 31 8L24 8C22.9391 8 21.9217 8.42143 21.1716 9.17157C20.4214 9.92172 20 10.9391 20 12C20 13.0609 20.4214 14.0783 21.1716 14.8284C21.9217 15.5786 22.9391 16 24 16H31C32.6569 16 34 17.3431 34 19C34 20.6569 32.6569 22 31 22H24C21.3478 22 18.8043 20.9464 16.9289 19.0711C15.0536 17.1957 14 14.6522 14 12C14 9.34783 15.0536 6.8043 16.9289 4.92893Z" fill="#66A1A3"/>
<path fill-rule="evenodd" clip-rule="evenodd" d="M17 19.1413C18.8514 17.3263 20 14.7972 20 11.9998C20 9.20244 18.8514 6.67332 17 4.8584C16.9762 4.88172 16.9525 4.90518 16.9289 4.92876C15.0536 6.80412 14 9.34766 14 11.9998C14 14.652 15.0536 17.1955 16.9289 19.0709C16.9525 19.0945 16.9762 19.1179 17 19.1413Z" fill="#004F52"/>
<circle cx="31" cy="5" r="3" fill="#328285"/>
<circle cx="31" cy="19" r="3" fill="#328285"/>
<path d="M66.7719 30.1333H62.5719V18.6333H58.9053C58.7275 22.1444 57.9831 24.7778 56.6719 26.5333C55.3831 28.2667 53.6608 29.1333 51.5053 29.1333C49.1942 29.1333 47.3719 28.1333 46.0386 26.1333C44.7053 24.1111 44.0386 21.0778 44.0386 17.0333C44.0386 12.9889 44.7053 9.96667 46.0386 7.96667C47.3719 5.94444 49.1942 4.93333 51.5053 4.93333C53.5497 4.93333 55.2164 5.73333 56.5053 7.33333C57.7942 8.91111 58.5831 11.3 58.8719 14.5H62.5719V4.53333H66.7719V30.1333ZM51.5053 25.1C52.5053 25.1 53.2942 24.4667 53.8719 23.2C54.4719 21.9333 54.7719 19.8778 54.7719 17.0333C54.7719 14.2111 54.4719 12.1667 53.8719 10.9C53.2942 9.61111 52.5053 8.96667 51.5053 8.96667C50.4831 8.96667 49.6719 9.61111 49.0719 10.9C48.4942 12.1667 48.2053 14.2111 48.2053 17.0333C48.2053 22.4111 49.3053 25.1 51.5053 25.1ZM88.8018 30.1333V4.53333H93.0351V30.1333H88.8018ZM75.1684 9.26667V24.8H80.9684C82.124 24.8 83.2684 24.6889 84.4018 24.4667C85.5573 24.2444 86.5129 23.9556 87.2684 23.6V27.6C86.5351 27.9778 85.5684 28.2778 84.3684 28.5C83.1906 28.7222 82.0018 28.8333 80.8018 28.8333H70.9351V5.23333H85.3351V9.26667H75.1684ZM118.732 13.0333H121.765V16.8H118.732V19.7667H114.532V4.53333H118.732V6.8H121.765V10.6H118.732V13.0333ZM103.698 19.2C102.165 19.2 100.809 18.8889 99.6316 18.2667C98.4538 17.6444 97.5427 16.7889 96.8982 15.7C96.2538 14.5889 95.9316 13.3222 95.9316 11.9C95.9316 10.5 96.2538 9.25556 96.8982 8.16667C97.5427 7.05556 98.4538 6.18889 99.6316 5.56667C100.809 4.94444 102.165 4.63333 103.698 4.63333C105.209 4.63333 106.554 4.94444 107.732 5.56667C108.909 6.18889 109.82 7.05556 110.465 8.16667C111.109 9.25556 111.432 10.5 111.432 11.9C111.432 13.3222 111.109 14.5889 110.465 15.7C109.82 16.7889 108.909 17.6444 107.732 18.2667C106.554 18.8889 105.209 19.2 103.698 19.2ZM103.698 8.3C102.632 8.3 101.765 8.62222 101.098 9.26667C100.454 9.91111 100.132 10.7889 100.132 11.9C100.132 13.0111 100.454 13.9 101.098 14.5667C101.765 15.2111 102.632 15.5333 103.698 15.5333C104.765 15.5333 105.62 15.2111 106.265 14.5667C106.932 13.9 107.265 13.0111 107.265 11.9C107.265 10.7889 106.932 9.91111 106.265 9.26667C105.62 8.62222 104.765 8.3 103.698 8.3ZM118.732 20.8333V30.3333H114.465V24.6333H97.7316V20.8333H118.732Z" fill="#006367"/>
<path d="M66.7719 30.1333H62.5719V18.6333H58.9053C58.7275 22.1444 57.9831 24.7778 56.6719 26.5333C55.3831 28.2667 53.6608 29.1333 51.5053 29.1333C49.1942 29.1333 47.3719 28.1333 46.0386 26.1333C44.7053 24.1111 44.0386 21.0778 44.0386 17.0333C44.0386 12.9889 44.7053 9.96667 46.0386 7.96667C47.3719 5.94444 49.1942 4.93333 51.5053 4.93333C53.5497 4.93333 55.2164 5.73333 56.5053 7.33333C57.7942 8.91111 58.5831 11.3 58.8719 14.5H62.5719V4.53333H66.7719V30.1333ZM51.5053 25.1C52.5053 25.1 53.2942 24.4667 53.8719 23.2C54.4719 21.9333 54.7719 19.8778 54.7719 17.0333C54.7719 14.2111 54.4719 12.1667 53.8719 10.9C53.2942 9.61111 52.5053 8.96667 51.5053 8.96667C50.4831 8.96667 49.6719 9.61111 49.0719 10.9C48.4942 12.1667 48.2053 14.2111 48.2053 17.0333C48.2053 22.4111 49.3053 25.1 51.5053 25.1ZM88.8018 30.1333V4.53333H93.0351V30.1333H88.8018ZM75.1684 9.26667V24.8H80.9684C82.124 24.8 83.2684 24.6889 84.4018 24.4667C85.5573 24.2444 86.5129 23.9556 87.2684 23.6V27.6C86.5351 27.9778 85.5684 28.2778 84.3684 28.5C83.1906 28.7222 82.0018 28.8333 80.8018 28.8333H70.9351V5.23333H85.3351V9.26667H75.1684ZM118.732 13.0333H121.765V16.8H118.732V19.7667H114.532V4.53333H118.732V6.8H121.765V10.6H118.732V13.0333ZM103.698 19.2C102.165 19.2 100.809 18.8889 99.6316 18.2667C98.4538 17.6444 97.5427 16.7889 96.8982 15.7C96.2538 14.5889 95.9316 13.3222 95.9316 11.9C95.9316 10.5 96.2538 9.25556 96.8982 8.16667C97.5427 7.05556 98.4538 6.18889 99.6316 5.56667C100.809 4.94444 102.165 4.63333 103.698 4.63333C105.209 4.63333 106.554 4.94444 107.732 5.56667C108.909 6.18889 109.82 7.05556 110.465 8.16667C111.109 9.25556 111.432 10.5 111.432 11.9C111.432 13.3222 111.109 14.5889 110.465 15.7C109.82 16.7889 108.909 17.6444 107.732 18.2667C106.554 18.8889 105.209 19.2 103.698 19.2ZM103.698 8.3C102.632 8.3 101.765 8.62222 101.098 9.26667C100.454 9.91111 100.132 10.7889 100.132 11.9C100.132 13.0111 100.454 13.9 101.098 14.5667C101.765 15.2111 102.632 15.5333 103.698 15.5333C104.765 15.5333 105.62 15.2111 106.265 14.5667C106.932 13.9 107.265 13.0111 107.265 11.9C107.265 10.7889 106.932 9.91111 106.265 9.26667C105.62 8.62222 104.765 8.3 103.698 8.3ZM118.732 20.8333V30.3333H114.465V24.6333H97.7316V20.8333H118.732Z" fill="#71BB9D"/>
</svg>
