<svg width="22" height="22" viewBox="0 0 22 22" fill="none" xmlns="http://www.w3.org/2000/svg">
<path d="M11.0007 11.9173C11.5069 11.9173 11.9173 11.5069 11.9173 11.0007C11.9173 10.4944 11.5069 10.084 11.0007 10.084C10.4944 10.084 10.084 10.4944 10.084 11.0007C10.084 11.5069 10.4944 11.9173 11.0007 11.9173Z" fill="#707070" stroke="#707070" stroke-linecap="round" stroke-linejoin="round"/>
<path d="M11.0007 5.49935C11.5069 5.49935 11.9173 5.08894 11.9173 4.58268C11.9173 4.07642 11.5069 3.66602 11.0007 3.66602C10.4944 3.66602 10.084 4.07642 10.084 4.58268C10.084 5.08894 10.4944 5.49935 11.0007 5.49935Z" fill="#707070" stroke="#707070" stroke-linecap="round" stroke-linejoin="round"/>
<path d="M11.0007 18.3333C11.5069 18.3333 11.9173 17.9229 11.9173 17.4167C11.9173 16.9104 11.5069 16.5 11.0007 16.5C10.4944 16.5 10.084 16.9104 10.084 17.4167C10.084 17.9229 10.4944 18.3333 11.0007 18.3333Z" fill="#707070" stroke="#707070" stroke-linecap="round" stroke-linejoin="round"/>
</svg>
