<svg width="20" height="21" viewBox="0 0 20 21" fill="none" xmlns="http://www.w3.org/2000/svg">
<path d="M16.2337 5.20893C15.8735 4.84857 15.4458 4.56271 14.9751 4.36768C14.5044 4.17265 13.9999 4.07227 13.4904 4.07227C12.9809 4.07227 12.4764 4.17265 12.0057 4.36768C11.535 4.56271 11.1074 4.84857 10.7472 5.20893L9.99968 5.95645L9.25216 5.20893C8.52461 4.48138 7.53784 4.07264 6.50892 4.07264C5.48001 4.07264 4.49323 4.48138 3.76568 5.20893C3.03813 5.93648 2.62939 6.92326 2.62939 7.95217C2.62939 8.98109 3.03813 9.96786 3.76568 10.6954L4.5132 11.4429L9.99968 16.9294L15.4862 11.4429L16.2337 10.6954C16.594 10.3352 16.8799 9.90757 17.0749 9.43687C17.27 8.96618 17.3703 8.46167 17.3703 7.95217C17.3703 7.44267 17.27 6.93816 17.0749 6.46747C16.8799 5.99677 16.594 5.56912 16.2337 5.20893Z" stroke="currentColor" stroke-width="1.4" stroke-linecap="round" stroke-linejoin="round"/>
</svg>
