<svg width="100%" height="100%" viewBox="0 0 131 44" fill="none" xmlns="http://www.w3.org/2000/svg">
<path d="M38.3616 42.8991H31.3238V23.6287H25.1796C24.8817 29.5122 23.6342 33.9249 21.4372 36.8666C19.2774 39.7712 16.3915 41.2234 12.7794 41.2234C8.90674 41.2234 5.85326 39.5477 3.61901 36.1964C1.38476 32.8077 0.267631 27.7248 0.267631 20.9476C0.267631 14.1703 1.38476 9.10603 3.61901 5.75465C5.85326 2.36604 8.90674 0.671727 12.7794 0.671727C16.2053 0.671727 18.9981 2.01228 21.1579 4.69338C23.3177 7.33725 24.6396 11.3403 25.1237 16.7025H31.3238V0.00145167H38.3616V42.8991ZM12.7794 34.4648C14.4551 34.4648 15.7771 33.4035 16.7452 31.281C17.7507 29.1585 18.2534 25.714 18.2534 20.9476C18.2534 16.2184 17.7507 12.7926 16.7452 10.67C15.7771 8.51023 14.4551 7.43034 12.7794 7.43034C11.0665 7.43034 9.70735 8.51023 8.70194 10.67C7.73376 12.7926 7.24967 16.2184 7.24967 20.9476C7.24967 29.9591 9.09293 34.4648 12.7794 34.4648ZM75.2768 42.8991V0.00145167H82.3705V42.8991H75.2768ZM52.4316 7.93305V33.9621H62.1506C64.0869 33.9621 66.0046 33.7759 67.9038 33.4035C69.8401 33.0312 71.4413 32.5471 72.7074 31.9513V38.654C71.4786 39.2871 69.8587 39.7898 67.8479 40.1622C65.8743 40.5345 63.8821 40.7207 61.8713 40.7207H45.3378V1.17443H69.4677V7.93305H52.4316ZM125.43 14.2448H130.513V20.5566H125.43V25.5278H118.392V0.00145167H125.43V3.79968H130.513V10.1673H125.43V14.2448ZM100.239 24.5782C97.6693 24.5782 95.3978 24.0569 93.4242 23.0143C91.4506 21.9716 89.9239 20.538 88.844 18.7133C87.7641 16.8514 87.2242 14.7289 87.2242 12.3457C87.2242 9.99974 87.7641 7.91443 88.844 6.08979C89.9239 4.22791 91.4506 2.77565 93.4242 1.733C95.3978 0.690346 97.6693 0.169021 100.239 0.169021C102.771 0.169021 105.024 0.690346 106.997 1.733C108.971 2.77565 110.498 4.22791 111.578 6.08979C112.657 7.91443 113.197 9.99974 113.197 12.3457C113.197 14.7289 112.657 16.8514 111.578 18.7133C110.498 20.538 108.971 21.9716 106.997 23.0143C105.024 24.0569 102.771 24.5782 100.239 24.5782ZM100.239 6.31322C98.4513 6.31322 96.999 6.85316 95.8819 7.93305C94.802 9.01294 94.2621 10.4838 94.2621 12.3457C94.2621 14.2076 94.802 15.6971 95.8819 16.8142C96.999 17.8941 98.4513 18.434 100.239 18.434C102.026 18.434 103.46 17.8941 104.54 16.8142C105.657 15.6971 106.215 14.2076 106.215 12.3457C106.215 10.4838 105.657 9.01294 104.54 7.93305C103.46 6.85316 102.026 6.31322 100.239 6.31322ZM125.43 27.3152V43.2343H118.28V33.6828H90.2404V27.3152H125.43Z" fill="#006367"/>
</svg>
