<svg width="100%" height="100%" viewBox="0 0 57 59" fill="none" xmlns="http://www.w3.org/2000/svg">
<path d="M33.5138 17.1075C33.5138 26.3621 26.0115 33.8644 16.7569 33.8644C7.50232 33.8644 0 26.3621 0 17.1075C0 7.85291 7.50232 0.350586 16.7569 0.350586C26.0115 0.350586 33.5138 7.85291 33.5138 17.1075ZM10.0541 17.1075C10.0541 20.8093 13.0551 23.8102 16.7569 23.8102C20.4587 23.8102 23.4597 20.8093 23.4597 17.1075C23.4597 13.4057 20.4587 10.4047 16.7569 10.4047C13.0551 10.4047 10.0541 13.4057 10.0541 17.1075Z" fill="#71BB9D"/>
<rect x="5.02686" y="37.2168" width="48.595" height="10.0541" rx="5.02707" fill="#71BB9D"/>
<rect x="53.6221" y="37.2168" width="21.784" height="10.0541" rx="5.02707" transform="rotate(90 53.6221 37.2168)" fill="#66A1A3"/>
<path fill-rule="evenodd" clip-rule="evenodd" d="M48.5934 37.2168H48.5949C51.3713 37.2168 53.622 39.4675 53.622 42.2439C53.622 45.0202 51.3713 47.2709 48.5949 47.2709H43.5679L43.5679 42.2439C43.5679 39.468 45.8178 37.2176 48.5934 37.2168Z" fill="#004F52"/>
<path fill-rule="evenodd" clip-rule="evenodd" d="M40.2165 0.350586H51.9463C54.7227 0.350586 56.9734 2.60128 56.9734 5.37766C56.9734 8.15403 54.7227 10.4047 51.9463 10.4047H40.2166V10.4051C38.4389 10.4051 36.7341 11.1113 35.477 12.3683C34.22 13.6253 33.5139 15.3302 33.5139 17.1079C33.5139 18.8856 34.22 20.5904 35.477 21.8474C36.734 23.1044 38.4389 23.8106 40.2165 23.8106V23.8103H51.9463C54.7227 23.8103 56.9734 26.061 56.9734 28.8373C56.9734 31.6137 54.7227 33.8644 51.9463 33.8644H40.2166V33.8648C35.7724 33.8648 31.5102 32.0993 28.3677 28.9568C25.2252 25.8143 23.4597 21.5521 23.4597 17.1079C23.4597 12.6637 25.2252 8.40149 28.3677 5.25896C31.5102 2.11646 35.7723 0.351006 40.2165 0.350978V0.350586Z" fill="#66A1A3"/>
<path fill-rule="evenodd" clip-rule="evenodd" d="M28.4872 29.0752C28.4472 29.036 28.4074 28.9966 28.3677 28.9569C25.2252 25.8144 23.4597 21.5522 23.4597 17.108C23.4597 12.6638 25.2252 8.40161 28.3677 5.25908C28.4071 5.21971 28.4466 5.18055 28.4864 5.1416C31.5889 8.18288 33.5138 12.4211 33.5138 17.1088C33.5138 21.7962 31.5892 26.034 28.4872 29.0752Z" fill="#004F52"/>
<circle cx="51.9465" cy="5.37766" r="5.02707" fill="#328285"/>
<circle cx="51.9465" cy="28.8376" r="5.02707" fill="#328285"/>
</svg>
