<svg width="122" height="38" viewBox="0 0 122 38" fill="none" xmlns="http://www.w3.org/2000/svg">
<path d="M20 12.5C20 18.0228 15.5228 22.5 10 22.5C4.47715 22.5 0 18.0228 0 12.5C0 6.97715 4.47715 2.5 10 2.5C15.5228 2.5 20 6.97715 20 12.5ZM6 12.5C6 14.7091 7.79086 16.5 10 16.5C12.2091 16.5 14 14.7091 14 12.5C14 10.2909 12.2091 8.5 10 8.5C7.79086 8.5 6 10.2909 6 12.5Z" fill="#71BB9D"/>
<rect x="3" y="24.5" width="29" height="6" rx="3" fill="#71BB9D"/>
<rect x="32" y="24.5" width="13" height="6" rx="3" transform="rotate(90 32 24.5)" fill="#66A1A3"/>
<path fill-rule="evenodd" clip-rule="evenodd" d="M32 27.5C32 25.8431 30.6569 24.5 29 24.5C27.3431 24.5 26 25.8431 26 27.5V30.5H29C30.6569 30.5 32 29.1569 32 27.5Z" fill="#004F52"/>
<path fill-rule="evenodd" clip-rule="evenodd" d="M16.9289 5.42893C18.8043 3.55357 21.3478 2.5 24 2.5H31C32.6569 2.5 34 3.84315 34 5.5C34 7.15685 32.6569 8.5 31 8.5L24 8.5C22.9391 8.5 21.9217 8.92143 21.1716 9.67157C20.4214 10.4217 20 11.4391 20 12.5C20 13.5609 20.4214 14.5783 21.1716 15.3284C21.9217 16.0786 22.9391 16.5 24 16.5H31C32.6569 16.5 34 17.8431 34 19.5C34 21.1569 32.6569 22.5 31 22.5H24C21.3478 22.5 18.8043 21.4464 16.9289 19.5711C15.0536 17.6957 14 15.1522 14 12.5C14 9.84783 15.0536 7.3043 16.9289 5.42893Z" fill="#66A1A3"/>
<path fill-rule="evenodd" clip-rule="evenodd" d="M17 19.6413C18.8514 17.8263 20 15.2972 20 12.4998C20 9.70244 18.8514 7.17332 17 5.3584C16.9762 5.38172 16.9525 5.40518 16.9289 5.42876C15.0536 7.30413 14 9.84766 14 12.4998C14 15.152 15.0536 17.6955 16.9289 19.5709C16.9525 19.5945 16.9762 19.6179 17 19.6413Z" fill="#004F52"/>
<circle cx="31" cy="5.5" r="3" fill="#328285"/>
<circle cx="31" cy="19.5" r="3" fill="#328285"/>
<path d="M66.7719 30.6333H62.5719V19.1333H58.9053C58.7275 22.6444 57.9831 25.2778 56.6719 27.0333C55.3831 28.7667 53.6608 29.6333 51.5053 29.6333C49.1942 29.6333 47.3719 28.6333 46.0386 26.6333C44.7053 24.6111 44.0386 21.5778 44.0386 17.5333C44.0386 13.4889 44.7053 10.4667 46.0386 8.46667C47.3719 6.44444 49.1942 5.43333 51.5053 5.43333C53.5497 5.43333 55.2164 6.23333 56.5053 7.83333C57.7942 9.41111 58.5831 11.8 58.8719 15H62.5719V5.03333H66.7719V30.6333ZM51.5053 25.6C52.5053 25.6 53.2942 24.9667 53.8719 23.7C54.4719 22.4333 54.7719 20.3778 54.7719 17.5333C54.7719 14.7111 54.4719 12.6667 53.8719 11.4C53.2942 10.1111 52.5053 9.46667 51.5053 9.46667C50.4831 9.46667 49.6719 10.1111 49.0719 11.4C48.4942 12.6667 48.2053 14.7111 48.2053 17.5333C48.2053 22.9111 49.3053 25.6 51.5053 25.6ZM88.8018 30.6333V5.03333H93.0351V30.6333H88.8018ZM75.1684 9.76667V25.3H80.9684C82.124 25.3 83.2684 25.1889 84.4018 24.9667C85.5573 24.7444 86.5129 24.4556 87.2684 24.1V28.1C86.5351 28.4778 85.5684 28.7778 84.3684 29C83.1906 29.2222 82.0018 29.3333 80.8018 29.3333H70.9351V5.73333H85.3351V9.76667H75.1684ZM118.732 13.5333H121.765V17.3H118.732V20.2667H114.532V5.03333H118.732V7.3H121.765V11.1H118.732V13.5333ZM103.698 19.7C102.165 19.7 100.809 19.3889 99.6316 18.7667C98.4538 18.1444 97.5427 17.2889 96.8982 16.2C96.2538 15.0889 95.9316 13.8222 95.9316 12.4C95.9316 11 96.2538 9.75556 96.8982 8.66667C97.5427 7.55556 98.4538 6.68889 99.6316 6.06667C100.809 5.44444 102.165 5.13333 103.698 5.13333C105.209 5.13333 106.554 5.44444 107.732 6.06667C108.909 6.68889 109.82 7.55556 110.465 8.66667C111.109 9.75556 111.432 11 111.432 12.4C111.432 13.8222 111.109 15.0889 110.465 16.2C109.82 17.2889 108.909 18.1444 107.732 18.7667C106.554 19.3889 105.209 19.7 103.698 19.7ZM103.698 8.8C102.632 8.8 101.765 9.12222 101.098 9.76667C100.454 10.4111 100.132 11.2889 100.132 12.4C100.132 13.5111 100.454 14.4 101.098 15.0667C101.765 15.7111 102.632 16.0333 103.698 16.0333C104.765 16.0333 105.62 15.7111 106.265 15.0667C106.932 14.4 107.265 13.5111 107.265 12.4C107.265 11.2889 106.932 10.4111 106.265 9.76667C105.62 9.12222 104.765 8.8 103.698 8.8ZM118.732 21.3333V30.8333H114.465V25.1333H97.7316V21.3333H118.732Z" fill="#006367"/>
<mask id="mask0_1194_14565" style="mask-type:alpha" maskUnits="userSpaceOnUse" x="44" y="5" width="78" height="26">
<path d="M66.7719 30.6333H62.5719V19.1333H58.9053C58.7275 22.6444 57.9831 25.2778 56.6719 27.0333C55.3831 28.7667 53.6608 29.6333 51.5053 29.6333C49.1942 29.6333 47.3719 28.6333 46.0386 26.6333C44.7053 24.6111 44.0386 21.5778 44.0386 17.5333C44.0386 13.4889 44.7053 10.4667 46.0386 8.46667C47.3719 6.44444 49.1942 5.43333 51.5053 5.43333C53.5497 5.43333 55.2164 6.23333 56.5053 7.83333C57.7942 9.41111 58.5831 11.8 58.8719 15H62.5719V5.03333H66.7719V30.6333ZM51.5053 25.6C52.5053 25.6 53.2942 24.9667 53.8719 23.7C54.4719 22.4333 54.7719 20.3778 54.7719 17.5333C54.7719 14.7111 54.4719 12.6667 53.8719 11.4C53.2942 10.1111 52.5053 9.46667 51.5053 9.46667C50.4831 9.46667 49.6719 10.1111 49.0719 11.4C48.4942 12.6667 48.2053 14.7111 48.2053 17.5333C48.2053 22.9111 49.3053 25.6 51.5053 25.6ZM88.8018 30.6333V5.03333H93.0351V30.6333H88.8018ZM75.1684 9.76667V25.3H80.9684C82.124 25.3 83.2684 25.1889 84.4018 24.9667C85.5573 24.7444 86.5129 24.4556 87.2684 24.1V28.1C86.5351 28.4778 85.5684 28.7778 84.3684 29C83.1906 29.2222 82.0018 29.3333 80.8018 29.3333H70.9351V5.73333H85.3351V9.76667H75.1684ZM118.732 13.5333H121.765V17.3H118.732V20.2667H114.532V5.03333H118.732V7.3H121.765V11.1H118.732V13.5333ZM103.698 19.7C102.165 19.7 100.809 19.3889 99.6316 18.7667C98.4538 18.1444 97.5427 17.2889 96.8982 16.2C96.2538 15.0889 95.9316 13.8222 95.9316 12.4C95.9316 11 96.2538 9.75556 96.8982 8.66667C97.5427 7.55556 98.4538 6.68889 99.6316 6.06667C100.809 5.44444 102.165 5.13333 103.698 5.13333C105.209 5.13333 106.554 5.44444 107.732 6.06667C108.909 6.68889 109.82 7.55556 110.465 8.66667C111.109 9.75556 111.432 11 111.432 12.4C111.432 13.8222 111.109 15.0889 110.465 16.2C109.82 17.2889 108.909 18.1444 107.732 18.7667C106.554 19.3889 105.209 19.7 103.698 19.7ZM103.698 8.8C102.632 8.8 101.765 9.12222 101.098 9.76667C100.454 10.4111 100.132 11.2889 100.132 12.4C100.132 13.5111 100.454 14.4 101.098 15.0667C101.765 15.7111 102.632 16.0333 103.698 16.0333C104.765 16.0333 105.62 15.7111 106.265 15.0667C106.932 14.4 107.265 13.5111 107.265 12.4C107.265 11.2889 106.932 10.4111 106.265 9.76667C105.62 9.12222 104.765 8.8 103.698 8.8ZM118.732 21.3333V30.8333H114.465V25.1333H97.7316V21.3333H118.732Z" fill="#073825"/>
</mask>
<g mask="url(#mask0_1194_14565)">
</g>
</svg>