<svg width="32" height="53" viewBox="0 0 32 53" fill="none" xmlns="http://www.w3.org/2000/svg">
<path d="M13.2676 41.2852H10.6074V40.2539H13.2676V41.2852ZM13.1855 43.4824H10.5312V42.4277H13.1855V43.4824ZM14.3516 44.6484H13.0508V38.4609H14.3516V44.6484ZM11.0117 39.1992C11.0117 40.1289 10.8223 40.9609 10.4434 41.6953C10.0684 42.4297 9.51562 43.0547 8.78516 43.5703C8.05859 44.082 7.16602 44.4883 6.10742 44.7891L5.5918 43.7637C6.48242 43.5176 7.22656 43.1992 7.82422 42.8086C8.42578 42.418 8.875 41.9707 9.17188 41.4668C9.46875 40.9629 9.61719 40.4121 9.61719 39.8145V39.1992H11.0117ZM10.5195 40.2598H6.14258V39.1992H10.5195V40.2598ZM10.8418 44.7656C11.5566 44.7656 12.1836 44.8516 12.7227 45.0234C13.2656 45.1953 13.6836 45.4395 13.9766 45.7559C14.2734 46.0684 14.4219 46.4395 14.4219 46.8691C14.4219 47.2988 14.2734 47.6738 13.9766 47.9941C13.6836 48.3145 13.2656 48.5586 12.7227 48.7266C12.1836 48.8984 11.5566 48.9844 10.8418 48.9844C10.127 48.9844 9.49805 48.8984 8.95508 48.7266C8.41602 48.5586 7.99805 48.3145 7.70117 47.9941C7.4043 47.6738 7.25586 47.2988 7.25586 46.8691C7.25586 46.4395 7.4043 46.0684 7.70117 45.7559C7.99805 45.4395 8.41602 45.1953 8.95508 45.0234C9.49805 44.8516 10.127 44.7656 10.8418 44.7656ZM10.8418 45.791C10.373 45.7832 9.96484 45.8223 9.61719 45.9082C9.27344 45.9902 9.00977 46.1133 8.82617 46.2773C8.64258 46.4414 8.55078 46.6387 8.55078 46.8691C8.55078 47.0996 8.64258 47.2949 8.82617 47.4551C9.00977 47.6152 9.27148 47.7383 9.61133 47.8242C9.95508 47.9062 10.3652 47.9473 10.8418 47.9473C11.3145 47.9473 11.7207 47.9062 12.0605 47.8242C12.4004 47.7383 12.6621 47.6152 12.8457 47.4551C13.0293 47.2949 13.1211 47.0996 13.1211 46.8691C13.1211 46.6387 13.0293 46.4414 12.8457 46.2773C12.6621 46.1133 12.4004 45.9902 12.0605 45.9082C11.7207 45.8223 11.3145 45.7832 10.8418 45.791ZM25.5371 47.8125H15.8574V46.7402H25.5371V47.8125ZM21.3125 47.1973H20.0293V44.6484H21.3125V47.1973ZM24.3828 42.5742H18.3008V44.4961H17V41.5488H23.0996V40.2246H16.9824V39.1699H24.3828V42.5742ZM24.6348 45.0059H17V43.9453H24.6348V45.0059Z" fill="#707070"/>
<circle cx="16" cy="16" r="15" fill="white" stroke="#707070" stroke-width="1.6"/>
<path d="M9 16.332L21.6667 10.332L15.6667 22.9987L14.3333 17.6654L9 16.332Z" stroke="#707070" stroke-width="1.33333" stroke-linecap="round" stroke-linejoin="round"/>
</svg>
