<svg width="100%" height="100%" viewBox="0 0 18 19" fill="none" xmlns="http://www.w3.org/2000/svg">
<path d="M13.6667 6.2418C13.6667 5.07484 13.175 3.95569 12.2998 3.13053C11.4247 2.30537 10.2377 1.8418 9 1.8418C7.76232 1.8418 6.57534 2.30537 5.70017 3.13053C4.825 3.95569 4.33333 5.07484 4.33333 6.2418C4.33333 11.3751 2 12.8418 2 12.8418H16C16 12.8418 13.6667 11.3751 13.6667 6.2418Z" stroke="currentColor" stroke-width="1.6" stroke-linecap="round" stroke-linejoin="round"/>
<path d="M10.4794 15.8418C10.329 16.1195 10.1133 16.35 9.85362 16.5102C9.59398 16.6704 9.29961 16.7548 8.99998 16.7548C8.70035 16.7548 8.40598 16.6704 8.14635 16.5102C7.88671 16.35 7.67091 16.1195 7.52057 15.8418" stroke="currentColor" stroke-width="1.6" stroke-linecap="round" stroke-linejoin="round"/>
</svg>
