<svg width="32" height="32" viewBox="0 0 32 32" fill="none" xmlns="http://www.w3.org/2000/svg">
<g id="user">
<path id="Vector" d="M16.0001 17.0665C18.3565 17.0665 20.2667 15.1563 20.2667 12.7999C20.2667 10.4435 18.3565 8.5332 16.0001 8.5332C13.6437 8.5332 11.7334 10.4435 11.7334 12.7999C11.7334 15.1563 13.6437 17.0665 16.0001 17.0665Z" stroke="#333333" stroke-width="2" stroke-linecap="round" stroke-linejoin="round"/>
<path id="Vector_2" d="M25.5999 25.5997C25.5999 23.2433 21.3018 21.333 15.9999 21.333C10.698 21.333 6.3999 23.2433 6.3999 25.5997" stroke="#333333" stroke-width="2" stroke-linecap="round" stroke-linejoin="round"/>
<path id="Vector_3" d="M16 29.8671C23.6583 29.8671 29.8666 23.6588 29.8666 16.0005C29.8666 8.34211 23.6583 2.13379 16 2.13379C8.34162 2.13379 2.1333 8.34211 2.1333 16.0005C2.1333 23.6588 8.34162 29.8671 16 29.8671Z" stroke="#333333" stroke-width="2" stroke-linecap="round" stroke-linejoin="round"/>
</g>
</svg>
