<svg width="100%" height="100%" viewBox="0 0 30 30" fill="none" xmlns="http://www.w3.org/2000/svg">
<path fill-rule="evenodd" clip-rule="evenodd" d="M24.4571 6.95711C24.8476 6.56658 24.8476 5.93342 24.4571 5.54289C24.0666 5.15237 23.4334 5.15237 23.0429 5.54289L15 13.5858L6.95711 5.54289C6.56658 5.15237 5.93342 5.15237 5.54289 5.54289C5.15237 5.93342 5.15237 6.56658 5.54289 6.95711L13.5858 15L5.54289 23.0429C5.15237 23.4334 5.15237 24.0666 5.54289 24.4571C5.93342 24.8476 6.56658 24.8476 6.95711 24.4571L15 16.4142L23.0429 24.4571C23.4334 24.8476 24.0666 24.8476 24.4571 24.4571C24.8476 24.0666 24.8476 23.4334 24.4571 23.0429L16.4142 15L24.4571 6.95711Z" fill="#474747"/>
</svg>
