<svg width="100%" height="100%" viewBox="0 0 20 20" fill="none" xmlns="http://www.w3.org/2000/svg">
<path id="Union" fill-rule="evenodd" clip-rule="evenodd" d="M19.4571 1.95711C19.8476 1.56658 19.8476 0.933417 19.4571 0.542893C19.0666 0.152369 18.4334 0.152369 18.0429 0.542893L10 8.58579L1.95711 0.542893C1.56658 0.152369 0.933417 0.152369 0.542893 0.542893C0.152369 0.933417 0.152369 1.56658 0.542893 1.95711L8.58579 10L0.542893 18.0429C0.152369 18.4334 0.152369 19.0666 0.542893 19.4571C0.933417 19.8476 1.56658 19.8476 1.95711 19.4571L10 11.4142L18.0429 19.4571C18.4334 19.8476 19.0666 19.8476 19.4571 19.4571C19.8476 19.0666 19.8476 18.4334 19.4571 18.0429L11.4142 10L19.4571 1.95711Z" fill="#282828"/>
</svg>
