<svg width="24" height="25" viewBox="0 0 24 25" fill="none" xmlns="http://www.w3.org/2000/svg">
<path d="M8.23989 0.686265C5.76399 1.56301 3.62877 3.22709 2.14787 5.43408C0.666973 7.64108 -0.0815505 10.2747 0.0122474 12.948C0.106045 15.6213 1.03722 18.1935 2.669 20.2867C4.30078 22.3799 6.54715 23.8838 9.07815 24.5775C11.1301 25.118 13.2799 25.1417 15.3428 24.6467C17.2116 24.2182 18.9394 23.3017 20.3569 21.9868C21.8322 20.5766 22.9031 18.7825 23.4544 16.7975C24.0536 14.639 24.1602 12.3689 23.7661 10.1617H12.2434V15.0408H18.9166C18.7832 15.8189 18.4974 16.5616 18.0763 17.2244C17.6552 17.8872 17.1074 18.4565 16.4657 18.8982C15.6508 19.4484 14.7322 19.8186 13.7689 19.985C12.8028 20.1684 11.8118 20.1684 10.8457 19.985C9.86644 19.7784 8.94011 19.3658 8.12567 18.7737C6.81727 17.8283 5.83483 16.4852 5.31856 14.936C4.79357 13.3579 4.79357 11.647 5.31856 10.0689C5.68606 8.96267 6.29357 7.95548 7.09575 7.12247C8.01376 6.1517 9.17598 5.45779 10.4549 5.11687C11.7338 4.77595 13.08 4.80119 14.3458 5.18983C15.3346 5.49967 16.2389 6.04102 16.9864 6.77073C17.7389 6.00663 18.49 5.24055 19.2399 4.4725C19.6271 4.05949 20.0491 3.66625 20.4305 3.24336C19.2894 2.15941 17.9499 1.31597 16.4889 0.761357C13.8284 -0.224745 10.9172 -0.251246 8.23989 0.686265Z" fill="white"/>
<path d="M8.2398 0.685272C10.9169 -0.252876 13.8281 -0.227073 16.4888 0.758388C17.9501 1.31677 19.2889 2.16427 20.4284 3.25225C20.0413 3.67514 19.6328 4.07036 19.2379 4.48139C18.4867 5.24681 17.7362 6.00959 16.9864 6.76973C16.2388 6.04003 15.3346 5.49868 14.3457 5.18884C13.0804 4.79884 11.7342 4.77213 10.4549 5.11166C9.17567 5.45118 8.01274 6.14382 7.09373 7.11358C6.29154 7.94658 5.68403 8.95377 5.31654 10.06L1.30334 6.8883C2.73982 3.98057 5.227 1.75637 8.2398 0.685272Z" fill="#E33629"/>
<path d="M0.24005 10.0307C0.455755 8.93947 0.813869 7.88271 1.30482 6.88867L5.31801 10.0682C4.79301 11.6464 4.79301 13.3573 5.31801 14.9354C3.98092 15.9893 2.64319 17.0485 1.30482 18.113C0.0757876 15.6158 -0.299044 12.7706 0.24005 10.0307Z" fill="#F8BD00"/>
<path d="M12.2444 10.1582H23.7671C24.1612 12.3654 24.0546 14.6354 23.4554 16.794C22.9041 18.779 21.8332 20.573 20.3579 21.9833C19.0628 20.9517 17.7618 19.9281 16.4667 18.8966C17.1088 18.4545 17.6568 17.8846 18.078 17.2211C18.4991 16.5576 18.7847 15.8141 18.9176 15.0353H12.2444C12.2425 13.4109 12.2444 11.7845 12.2444 10.1582Z" fill="#587DBD"/>
<path d="M1.30225 18.1131C2.64062 17.0592 3.97835 16 5.31544 14.9355C5.83274 16.4852 6.81657 17.8284 8.12642 18.7732C8.9434 19.3626 9.87172 19.7718 10.8522 19.9746C11.8184 20.158 12.8093 20.158 13.7755 19.9746C14.7388 19.8082 15.6574 19.438 16.4722 18.8878C17.7674 19.9193 19.0683 20.9429 20.3635 21.9745C18.9461 23.29 17.2184 24.2072 15.3494 24.6363C13.2865 25.1313 11.1367 25.1076 9.08471 24.5671C7.46182 24.1248 5.94593 23.3451 4.63206 22.2768C3.2414 21.1498 2.10557 19.7296 1.30225 18.1131Z" fill="#319F43"/>
</svg>
